<?xml version="1.0" encoding="UTF-8"?>
<svg width="48px" height="48px" viewBox="0 0 48 48" version="1.1" xmlns="http://www.w3.org/2000/svg" xmlns:xlink="http://www.w3.org/1999/xlink">
    <title>status-warning-badge</title>
    <g id="status-warning-badge" stroke="none" stroke-width="1" fill="none" fill-rule="evenodd">
        <path d="M25.7260289,5.94863277 L46.237839,40.9896416 C46.7958445,41.9429011 46.4754279,43.1680234 45.5221684,43.7260289 C45.2156799,43.9054369 44.8669473,44 44.51181,44 L3.48818996,44 C2.38362046,44 1.48818996,43.1045695 1.48818996,42 C1.48818996,41.6448628 1.58275307,41.2961302 1.76216102,40.9896416 L22.2739711,5.94863277 C22.8319766,4.99537331 24.0570989,4.6749567 25.0103584,5.23296223 C25.3063295,5.40621359 25.5527776,5.6526617 25.7260289,5.94863277 Z" id="Triangle" fill="#E5CC21"></path>
        <path d="M21.7412109,14 L26.2587891,14 L25.9072266,30.9980469 L22.0927734,30.9980469 L21.7412109,14 Z M23.9912109,39.9746094 C22.5673828,39.9746094 21.4423828,38.8671875 21.4423828,37.4785156 C21.4423828,36.0898438 22.5673828,35 23.9912109,35 C25.4326172,35 26.5576172,36.0898438 26.5576172,37.4785156 C26.5576172,38.8671875 25.4326172,39.9746094 23.9912109,39.9746094 Z" id="!" fill="#FFFFFF" fill-rule="nonzero"></path>
    </g>
</svg>